<svg version="1" xmlns="http://www.w3.org/2000/svg" width="682.667" height="682.667" viewBox="0 0 512 512"><path d="M248.7 31.7c-.1.1-3.4.4-7.2.7-3.9.3-8.1.8-9.5 1.1-1.4.4-3.6.8-5 1.1-8.4 1.8-26.3 11.8-33 18.5-3.8 3.8-10.2 11.9-13.2 16.5-2.5 3.9-8.6 17.3-9.3 20.4-.2.8-.9 3.5-1.5 6s-1.4 14.3-1.7 26.3l-.6 21.8 4.2-.6 4.1-.5.1 5.8c.1 16.1 4.7 55.4 7.5 65.2 2.3 8 7 16.3 12.2 21.9l4.7 5-.1 11.8c-.1 20.6-1.8 26.7-10.6 39.8l-4.1 6-14.1 5.4c-7.8 2.9-21.4 8.2-30.3 11.7-9 3.5-16.8 6.4-17.3 6.4-.6 0-1.8.5-2.8 1-.9.6-11.1 4.6-22.6 9.1-24.9 9.5-30.6 12.4-38.5 19.5-9.1 8.3-16.9 21.2-18.8 31.4-.2 1.3-1.1 5.6-1.9 9.5-.9 3.8-1.8 8.1-2 9.5-.6 2.8-5.3 25.1-6.2 29-1.2 5.4-.3 14.9 1.8 19.6 5.6 12.7 13.5 18 31.5 20.9 2.2.4 4.9.9 6 1 5.4 1 30.5 4.6 34.5 5.1 2.5.3 5.4.7 6.5.9 1.1.2 3.3.4 4.8.4 2 .1 2.6.5 2.1 1.4-.6.9-.5.9.8 0 .8-.7 1.7-1.1 1.9-.9.2.2 3.3.7 6.9 1 3.6.4 7.6.9 9 1.1 1.4.2 5.7.7 9.5 1 3.9.4 9 .8 11.5 1.1 7 .6 16.7 1.4 26 2 4.7.3 10.5.7 13 .9 10.6.9 47.4 1.9 70.5 1.8 32.5 0 65-1.4 90-3.9 2.8-.2 7.9-.6 11.5-.9 3.6-.2 7.4-.6 8.5-.8 1.1-.3 5.2-.8 9-1.2 8-.8 10-1 21-2.5 4.4-.6 9.6-1.4 11.5-1.6 3-.5 28.1-4.6 36.5-6.1 5.2-.9 11.9-4.6 16.5-9.3 11.4-11.4 12.1-19.9 4.3-56.5-5.5-25.5-7.4-31.3-13.6-41.2-4.5-7.3-15.4-17.7-22.3-21.5-3.9-2-64.4-25.8-65.8-25.8-.2 0-2.1-.8-4.2-1.7-2.2-.9-4.1-1.7-4.4-1.8-4-.9-12.8-5-12.3-5.8.4-.6.1-.7-.6-.3-.7.5-6.8-1.3-13.8-4-12.3-4.7-12.7-4.9-15.8-9.9-8.7-13.6-10.7-20.9-11-39.5l-.1-13.5 4.8-5.4c8.8-10.1 12.3-19.5 14.3-39.1.3-3 .8-6.2 1-7 .2-.8.7-4.2 1-7.5.3-3.3.8-7.4 1-9 .2-1.7.7-8.9 1-16 .3-7.2.9-13.7 1.2-14.5.3-.8.8-2.4 1-3.4.2-1.1 1.7-6.7 3.4-12.5 2.7-9.4 3-11.5 2.4-18.3-1.2-14.2-4.8-24.5-11.2-31.8-2.1-2.5-5.3-7.4-7-11-1.8-3.6-5.4-9-8.2-12.1-2.8-3.1-4.7-6-4.3-6.4.4-.5.2-.5-.5-.2-.6.4-3.5-.9-6.5-2.8-10.7-7.1-23.3-10.4-43.1-11.3-7.6-.4-13.9-.6-14-.5zm66.7 96.7l5.8 8.9-.5 10.1c-1.1 22.5-2.6 37.8-3.6 37.2-.3-.2-.6 1.7-.6 4.2 0 15.8-4.6 29.5-12.3 36.8-9.2 8.7-31.5 26.5-35 27.9-5.5 2.3-22.1 1.8-27.2-.8-3.9-1.9-30.9-24.2-35.3-29.1-5.6-6.3-8.5-14.6-10.2-29.5-.4-3-.8-6.1-1-7-.1-.9-.6-4.7-1-8.6-.4-3.8-.8-7.2-1-7.5-.2-.3-.7-7.1-1-15.1l-.7-14.6 12.3-1.2c10.4-1.1 21.2-2.5 41.9-5.6 2.8-.5 19.2-4.3 24.5-5.8 10.5-3 22.2-8.2 28.9-13.1l4.9-3.5 2.7 3.7c1.4 2 5.2 7.7 8.4 12.6zm-18.8 129.9c0 5.2 1 14.7 2 20.1.9 4.9 5.4 14.8 10.1 21.9l4.4 6.9-3.3 5.1c-7.1 11.1-19.5 24.5-28.3 30.7-2.2 1.5-6.9 4-10.4 5.5-22 9.2-44-1.7-66.7-33.1-5.8-7.9-5.9-6.6 1.1-17.4 3.5-5.4 6.7-11.8 7.1-14 0-.3.6-2.3 1.2-4.5 1.4-4.8 2.5-14.4 2.5-20.3 0-4.7.4-5 3.3-2.5 6.1 5.5 12 9.7 17.1 12.1 5.2 2.4 7.2 2.7 17.9 2.9 17.5.4 22.7-1.7 37.9-15.1 2.2-1.9 4-3.5 4-3.6 0 0 0 2.4.1 5.3zM155.3 365.9l4.7.1v10h-8v13.2c0 15.1-.4 16.1-7.9 19.9-4.3 2.2-4.4 2.3-2 3.2 5.6 2.2 7.3 3.4 9.1 6.2 1 1.6 1.8 3.9 1.7 5-.1 1.1-.1 7.1 0 13.2l.1 11.3h8v4.4c0 5.3-.6 5.6-11 6.3-6.9.4-7.7.2-10.5-2l-3-2.5-.5-16.6c-.4-13.3-.8-16.9-2-17.6-1.8-1.2-10.8-4-12.7-4-.8 0-1.3-1.3-1.3-3.8 0-3.7.2-3.9 4.3-5.1 2.3-.7 5.9-2.2 7.9-3.3l3.7-2.1.3-15.2c.3-13.6.5-15.5 2.3-17.5 2.5-2.8 4.9-3.7 8.9-3.4 1.7.1 5.2.3 7.9.3zm217.3 1.6c3.7 2.4 4.3 5 4.3 20.1.1 15.9.1 15.9 9.8 18.9 5.1 1.6 5.3 1.8 5.3 5.4 0 3.6-.1 3.6-5.2 4.9-2.9.6-6.4 2-7.8 3.1-2.4 1.8-2.5 2.2-3 17.4-.5 15.1-.6 15.7-3 18.1-2.9 2.8-6.8 3.4-15.2 2.2l-5.8-.8V448h8v-13.9c0-15.7.6-17.2 8.1-20.9l4.1-2-4.5-2c-6.7-3-7.7-5.6-7.7-20.7V376h-8v-4.9c0-4.9.1-5 3.3-5.3 7.1-.7 14.8 0 17.3 1.7zM224 408v40.1l-7.7-.3c-7.7-.3-7.8-.3-8.1-3.1-.2-1.5-.5-2.7-.7-2.7-.1 0-2.3 1.1-4.6 2.5-7.8 4.4-17.9 4.2-23.4-.3-8.7-7.2-11.7-23.9-6.3-35 2.6-5.4 9.6-11.4 15.1-12.8 4.1-1.1 12.2-1.2 16.2-.2 1.1.3 2.3 0 2.7-.6.4-.6.8-7.1.8-14.4V368h15.9l.1 40zm83.8-13.3c2 5.2 4.2 13.5 3.7 14.3-.3.5-.1 1 .5 1.2.5.1 1.7 3.4 2.6 7.3 3.1 13.6 2.4 14.3 7.8-7.5.2-.8 1.4-5.2 2.7-9.8l2.2-8.2h8.9c4.8 0 8.8.3 8.8.8 0 .4-1 3.6-2.3 7.2-1.3 3.6-5.7 15.9-9.8 27.3l-7.4 20.8-8.5-.3-8.5-.3-3.7-10.5c-2-5.8-6.3-18.1-9.7-27.4-3.4-9.3-6.1-17.1-6.1-17.3 0-.1 4-.3 8.9-.3 8.7 0 8.9 0 9.9 2.7zm-32.8 2.7c2.5 1.3 4.4 2.8 4.3 3.5-.2.6.2 1 .9.8 2.1-.4 4.9 9.2 4.6 15.7l-.3 6.1-15.7.3c-11.8.2-15.7.6-16.1 1.6-.8 2.1 2.2 7.2 5.1 8.6 3.1 1.4 13.2 1.4 18.2 0 4.8-1.4 4.6-1.5 6 3.5 1.2 4.2 1.1 4.7-.6 6-3.4 2.6-9.7 3.9-19.4 3.9-7.5.1-10.3-.3-13.5-1.9-8.2-4.1-13.6-15.3-13.1-26.9.5-8.8 3.6-14.3 11.9-20.6 5.6-4.2 20.1-4.6 27.7-.6z"/><path d="M194.2 406.5c.3.3-.7 2-2.3 3.8-3.4 3.7-4.4 7.9-3.6 15 .9 7.1 4 9.9 10.8 9.6 2.7-.2 4.9-.6 4.9-1 0-.5.6-.6 1.4-.3 1.2.5 1.5-1.4 1.8-10.5.4-15.2.3-15.4-5.7-15.8-2.8-.2-5.7-.6-6.5-.9-.8-.3-1.2-.2-.8.1zm64.3-.5c-2.9 1.1-5.3 4.1-5.9 7.3l-.5 2.7h8c7.5 0 7.9-.1 7.9-2.3-.1-5.5-4.8-9.4-9.5-7.7z"/></svg>