<svg version="1" xmlns="http://www.w3.org/2000/svg" width="682.667" height="682.667" viewBox="0 0 512 512"><path d="M238 18.7c-64.8 7-122.5 38.2-162.5 87.8-17 21-32.4 48.9-40.5 73.3-15.5 46.9-16.5 95.7-3 142.9 23.3 81 90.5 145.3 172.5 164.8 20.4 4.9 34.7 6.5 56 6.5 58.5.1 110.9-17.7 151-51 15-12.4 34.2-35.2 44.5-52.6 17.1-28.9 28.1-62.4 31.5-95.9.3-3.3.8-7.2 1.1-8.7.7-3.5.6-38.4-.1-46.3-.7-8.7-1.5-15.1-2.7-22.3l-1-6.2-112.1.2-112.2.3V257c-.1 25 0 46 .2 46.5.2.7 21.3 1.1 64.9 1h64.5l-.6 3.5c-2.3 13.1-10.3 30.9-19.7 43.8-18.7 25.8-53.2 44.2-89.8 48-11.9 1.3-35 .7-44.3-1.2-28.6-5.6-52.5-18.4-73.8-39.6-19.9-19.8-32-41-38.9-68-3-11.6-3.5-17.5-3.5-37 .1-19.2 1.4-27.6 6.6-43.3 12.3-36.6 38.5-67.4 71.7-84.1 20.1-10.1 38-14.6 60.7-15.1 33.7-.8 63 9.3 88.6 30.6l6.1 5.2 33.7-33.7L420.5 80l-4-3.5c-29-25.2-60.3-42-95.1-51-20.4-5.4-31.5-6.7-56.4-7-12.9-.1-25.1-.1-27 .2z"/></svg>