<svg version="1" xmlns="http://www.w3.org/2000/svg" width="341.333" height="341.333" viewBox="0 0 256 256"><path d="M114 .6C93.2 3.3 73.3 10.7 56 22.3 46.4 28.7 28.7 46.4 22.3 56 .6 88.4-5.4 127.1 5.5 164.5c10.8 37.1 40.9 69.4 77.3 83.1 6.8 2.6 10.6 2.4 12.2-.6.6-1 1-7.3 1-14v-12l-2.7.7c-1.6.3-6.2.7-10.3.7-15.2 0-24.1-5.7-30.8-19.8-3.9-8.1-8.3-13.5-15.2-18.7-4.6-3.4-3.7-5.9 2.2-5.9 8 0 14.6 4.8 22.5 16.2 6.3 9.3 18.7 13 29.6 9.1 4.6-1.7 5-2.2 6.7-7.1.9-3 2.7-6.7 3.9-8.2 2.6-3.6 2.6-4-.1-4-1.3 0-5.2-.7-8.8-1.4-24.6-5.3-39.5-19-44.5-41.1-1.6-7.2-2.4-21.4-1.4-28 1-7.4 5-17.2 9.4-22.9 2.6-3.4 2.6-3.6 1.4-9.6-1.3-6.9-.7-17.5 1.4-23.5l1.4-4 5.4.1c6.4.1 14 2.9 23.3 8.5l6.7 4 7.7-1.8c10.8-2.5 37.6-2.5 48.4 0l7.7 1.8 7.8-4.5c9.3-5.5 18.8-8.8 23.9-8.4 3.3.3 3.9.7 5.1 4.3 2.1 5.9 2.8 18.3 1.3 24.4-1.2 4.9-1.1 5.3 1.5 8.6 4.3 5.7 8.4 15.5 9.5 23.1 1.4 8.7 0 24-3 33.6-2.1 6.9-7.9 16.4-12.7 21-7.3 6.9-20.1 12.6-33.8 14.9-3.8.7-7.2 1.4-7.4 1.5-.1.2.8 1.8 2.2 3.6 4.8 6.3 5.7 12.2 5.7 35.5 0 12 .4 22.2 1 23.3 1.6 3 5.4 3.2 12.2.6 16.9-6.3 31.2-15.7 44.9-29.5 20.6-20.7 32.3-43.8 36.5-72.1C264.2 80.2 220.9 17.9 155 2.9 146.7 1 121.9-.4 114 .6z"/></svg>