<?xml version="1.0" standalone="no"?>
<!DOCTYPE svg PUBLIC "-//W3C//DTD SVG 20010904//EN"
 "http://www.w3.org/TR/2001/REC-SVG-20010904/DTD/svg10.dtd">
<svg version="1.0" xmlns="http://www.w3.org/2000/svg"
 width="512.000000pt" height="512.000000pt" viewBox="0 0 512.000000 512.000000"
 preserveAspectRatio="xMidYMid meet">
<metadata>
Created by potrace 1.11, written by Peter Selinger 2001-2013
</metadata>
<g transform="translate(0.000000,512.000000) scale(0.100000,-0.100000)"
fill="#000000" stroke="none">
<path d="M3388 4575 c-2 -1 -39 -5 -83 -9 -78 -7 -236 -39 -259 -53 -6 -4 -17
-8 -25 -9 -27 -5 -182 -84 -253 -130 -104 -68 -261 -229 -338 -346 -35 -54
-66 -98 -70 -98 -3 0 -14 17 -25 37 -37 69 -134 192 -212 269 -126 122 -305
233 -453 278 -30 9 -68 21 -85 26 -63 19 -125 25 -280 25 -178 0 -229 -6 -360
-40 -119 -31 -159 -46 -253 -93 -332 -164 -567 -460 -652 -820 -29 -123 -35
-172 -34 -332 0 -202 15 -300 71 -469 110 -329 337 -603 838 -1009 11 -9 106
-79 210 -156 457 -335 574 -426 755 -584 124 -109 345 -336 419 -430 36 -45
66 -80 68 -78 2 2 21 26 41 54 58 77 157 186 270 296 56 56 102 105 102 111
-1 5 -26 30 -56 55 -85 68 -236 231 -292 314 -94 137 -159 287 -182 419 -6 34
-13 73 -16 87 -5 31 -6 248 0 275 2 11 7 40 11 65 38 234 185 474 383 623 99
75 252 150 352 172 3 0 23 5 45 10 22 4 47 10 55 12 8 3 78 6 155 8 210 6 346
-27 519 -127 87 -50 89 -51 115 -34 125 80 239 127 366 152 87 17 325 11 407
-9 67 -17 63 -22 74 88 8 79 8 284 0 324 -3 14 -8 42 -11 61 -17 109 -55 241
-97 330 -115 245 -281 426 -515 560 -113 65 -296 131 -403 146 -19 2 -46 7
-60 10 -14 2 -65 7 -115 10 -49 3 -98 7 -107 8 -9 2 -18 3 -20 1z"/>
<path d="M3165 2723 c-306 -56 -498 -220 -580 -498 -24 -79 -28 -274 -7 -365
35 -157 109 -283 253 -431 101 -103 183 -171 439 -361 275 -203 437 -348 533
-475 18 -23 34 -42 37 -42 3 0 20 20 39 45 35 46 170 185 232 239 75 66 151
125 299 233 372 274 541 437 625 603 31 61 65 162 73 218 8 57 8 236 0 276
-42 213 -158 374 -345 477 -185 101 -453 112 -618 25 -11 -6 -38 -20 -59 -31
-58 -31 -166 -136 -206 -199 -19 -31 -37 -56 -40 -56 -3 -1 -21 24 -40 55 -49
80 -157 175 -243 218 -40 19 -79 37 -87 39 -8 3 -18 5 -22 6 -4 1 -22 7 -40
12 -33 11 -205 19 -243 12z"/>
</g>
</svg>
